<svg width="26" height="18" viewBox="0 0 26 18" fill="none" xmlns="http://www.w3.org/2000/svg">
<path d="M13.0738 4.3102C12.4337 4.3102 11.8222 4.43706 11.2395 4.69078C10.6568 4.9445 10.1562 5.28006 9.73763 5.69748C9.31907 6.11489 8.98258 6.61414 8.72816 7.19524C8.47375 7.77634 8.34654 8.38609 8.34654 9.02448C8.34654 9.66288 8.47375 10.2767 8.72816 10.866C8.98258 11.4553 9.31907 11.9586 9.73763 12.376C10.1562 12.7935 10.6568 13.1249 11.2395 13.3705C11.8222 13.616 12.4337 13.7388 13.0738 13.7388C13.9438 13.7388 14.7398 13.5301 15.4621 13.1127C16.1843 12.6952 16.7547 12.1264 17.1732 11.4062C17.5918 10.6859 17.8011 9.89205 17.8011 9.02448C17.8011 7.73133 17.3415 6.62233 16.4223 5.69748C15.5031 4.77262 14.3869 4.3102 13.0738 4.3102ZM13.0738 12.1673C12.5157 12.1673 11.9905 12.0241 11.4981 11.7377C11.0056 11.4512 10.6158 11.0665 10.3285 10.5836C10.0413 10.1007 9.89767 9.57285 9.89767 8.99993C9.89767 8.57434 9.97974 8.1692 10.1439 7.78453C10.308 7.39986 10.5337 7.06429 10.821 6.77783C11.1082 6.49137 11.4447 6.2663 11.8304 6.10261C12.2162 5.93892 12.6224 5.85707 13.0492 5.85707C13.9191 5.85707 14.6619 6.16399 15.2774 6.77783C15.8929 7.39167 16.2007 8.13237 16.2007 8.99993C16.2007 9.86749 15.897 10.6123 15.2897 11.2343C14.6824 11.8563 13.9438 12.1673 13.0738 12.1673ZM25.606 8.82806C25.606 8.81169 25.6019 8.79123 25.5937 8.76667C25.5855 8.74212 25.5814 8.72166 25.5814 8.70529C25.5814 8.68892 25.5773 8.67664 25.5691 8.66846L25.5568 8.65618V8.63163L25.5321 8.58252C24.416 6.01258 22.7253 3.99509 20.4602 2.53006C18.195 1.06503 15.7247 0.33252 13.0492 0.33252C11.2929 0.33252 9.60222 0.651716 7.97722 1.29011C6.35222 1.9285 4.87905 2.87381 3.55771 4.12605C2.23637 5.37828 1.19818 6.86377 0.443126 8.58252V8.6439L0.418505 8.68073V8.7544L0.393884 8.8035C0.37747 8.90172 0.369263 8.97538 0.369263 9.02448C0.369263 9.05722 0.373366 9.08996 0.381573 9.1227C0.38978 9.15544 0.393884 9.18818 0.393884 9.22091C0.393884 9.23728 0.402091 9.26184 0.418505 9.29457V9.34368L0.430816 9.38051L0.443126 9.39279V9.46645C1.5757 12.0364 3.27867 14.0457 5.55203 15.4944C7.82539 16.943 10.308 17.6673 12.9999 17.6673C14.7563 17.6673 16.4428 17.3522 18.0596 16.722C19.6764 16.0918 21.1414 15.1547 22.4545 13.9106C23.7676 12.6666 24.7935 11.1852 25.5321 9.46645C25.5486 9.46645 25.5568 9.45826 25.5568 9.4419V9.40507L25.5691 9.38051L25.5814 9.36823V9.29457L25.606 9.24547C25.6224 9.14725 25.6306 9.07359 25.6306 9.02448C25.6306 8.99175 25.6265 8.95901 25.6183 8.92627C25.6101 8.89353 25.606 8.86079 25.606 8.82806ZM12.9999 16.0959C10.6691 16.0959 8.51068 15.4862 6.52457 14.2667C4.53846 13.0472 3.02835 11.2998 1.99426 9.02448C3.02835 6.74919 4.54666 4.99361 6.54919 3.75774C8.55171 2.52188 10.7184 1.90395 13.0492 1.90395C14.5593 1.90395 16.0078 2.16585 17.3948 2.68966C18.7818 3.21347 20.058 4.01965 21.2234 5.10819C22.3888 6.19673 23.3162 7.50216 24.0056 9.02448C22.9715 11.2998 21.4614 13.0472 19.4753 14.2667C17.4892 15.4862 15.3308 16.0959 12.9999 16.0959Z" fill="white"/>
</svg>
