<svg width="189" height="83" viewBox="0 0 189 83" fill="none" xmlns="http://www.w3.org/2000/svg">
<path d="M39.4545 80.3164L37.5248 19.8714C37.4896 18.7613 37.9672 17.8247 38.5699 17.8247H42.4284C43.0311 17.8247 43.5087 18.7613 43.4734 19.8714L41.5437 80.3164C41.4679 82.7419 39.5321 82.7419 39.4545 80.3164Z" fill="url(#paint0_linear_91592_177)"/>
<path d="M40.4996 14.4552C43.1547 14.4552 45.3071 11.2193 45.3071 7.22759C45.3071 3.2359 43.1547 0 40.4996 0C37.8445 0 35.6921 3.2359 35.6921 7.22759C35.6921 11.2193 37.8445 14.4552 40.4996 14.4552Z" fill="url(#paint1_radial_91592_177)"/>
<path d="M43.5836 20.1393H37.4156C36.7829 20.1393 36.2701 19.3683 36.2701 18.4172C36.2701 17.466 36.7829 16.6951 37.4156 16.6951H43.5836C44.2162 16.6951 44.729 17.466 44.729 18.4172C44.729 19.3683 44.2162 20.1393 43.5836 20.1393Z" fill="#00868A"/>
<path d="M80.5308 36.2719L51.9792 19.4932C51.7122 19.3356 51.4073 19.4203 51.2002 19.7184C48.4132 23.7296 44.2542 24.9536 41.1261 25.2517C40.9173 25.2716 40.7085 25.2822 40.4996 25.2822V38.3782C42.5051 38.3782 44.5115 39.2856 46.2324 41.0991C47.5638 42.502 48.8538 43.9433 49.9895 45.2521C52.6515 48.3175 56.1161 49.3269 59.3482 47.9863C59.9588 47.7333 60.0901 46.5198 59.5649 45.9886L51.0927 37.8033C50.3217 37.023 51.0143 35.2519 51.8426 35.8864L62.8155 45.7899C62.9785 45.9144 63.1662 45.9449 63.3424 45.8734L69.1183 43.5578C69.7765 43.2942 69.869 41.9483 69.261 41.4873L54.9601 32.1547C54.1221 31.5202 54.6808 29.6179 55.5575 30.12L73.4614 41.3151C73.6341 41.4144 73.8253 41.4118 73.9972 41.3098L80.5308 38.3464C81.1565 37.9728 81.1565 36.6428 80.5308 36.2719Z" fill="url(#paint2_linear_91592_177)"/>
<path d="M39.8731 25.2517C36.7451 24.9523 32.5861 23.7296 29.799 19.7184C29.5919 19.4203 29.2871 19.3356 29.0201 19.4932L0.469318 36.2719C-0.156293 36.6415 -0.156293 37.9729 0.468437 38.3438L7.00211 41.3071C7.17393 41.4092 7.36514 41.4118 7.53784 41.3124L25.4418 30.1173C26.3185 29.6153 26.8763 31.5176 26.0392 32.1521L11.7382 41.4847C11.1303 41.9457 11.2228 43.2916 11.881 43.5552L17.6569 45.8708C17.8331 45.941 18.0217 45.9118 18.1838 45.7873L29.1567 35.8838C29.9849 35.2493 30.6784 37.0204 29.9065 37.8006L21.4343 45.986C20.9092 46.5172 21.0405 47.7307 21.6511 47.9837C24.884 49.3243 28.3478 48.3148 31.0097 45.2495C32.1464 43.9407 33.4355 42.4994 34.7669 41.0965C36.4878 39.283 38.4941 38.3756 40.4996 38.3756V25.2795C40.2908 25.2808 40.0819 25.2716 39.8731 25.2517Z" fill="url(#paint3_linear_91592_177)"/>
<path d="M38.4421 48.6042C37.168 48.4042 35.9591 48.2055 34.7775 47.8279C32.6151 47.1364 30.9815 45.8528 30.2942 44.3069C29.2906 42.0483 30.4185 39.1379 32.0503 37.4317C32.5094 36.9508 32.6231 36.0023 32.3032 35.3108C31.9834 34.6206 31.3525 34.4497 30.8925 34.9306C28.0438 37.9099 27.0833 42.5649 28.6086 45.9999C29.8801 48.8625 32.4354 50.1952 34.3554 50.8085C34.4576 50.8416 34.5607 50.8708 34.6629 50.9013C35.8013 50.0442 37.1319 49.6733 38.4659 49.3792L38.4421 48.6042Z" fill="url(#paint4_linear_91592_177)"/>
<path d="M42.0415 64.764C42.9976 65.1918 43.6294 65.7827 43.832 66.4781C43.9757 66.9709 43.803 67.5882 43.402 68.0148C43.0258 68.4148 42.4698 68.6374 41.9173 68.6467L41.8204 71.6961C41.845 71.6961 41.8697 71.6974 41.8944 71.6974C42.8698 71.6974 43.8408 71.2802 44.5731 70.5026C45.7617 69.2388 46.2208 67.0822 45.6886 65.2567C45.4727 64.5162 45.1273 63.8685 44.6541 63.3174C43.8893 63.6353 43.0284 63.8724 42.0653 64.0287L42.0415 64.764Z" fill="url(#paint5_linear_91592_177)"/>
<path d="M47.4703 52.0176C47.1223 51.5712 46.7407 51.2056 46.3354 50.9009C45.0956 51.2678 43.8286 51.4679 42.6011 51.6613C42.5544 51.6692 42.506 51.6758 42.4593 51.6838L42.4355 52.4375C43.9255 52.7753 45.2798 53.2125 46.1548 54.3358C46.6755 55.0048 46.9769 55.899 46.9795 56.7879C46.9822 57.5363 46.7724 58.208 46.3733 58.7325C45.5327 59.8347 44.1193 60.5779 42.1641 60.9448C41.8848 60.9978 41.5949 61.0415 41.2935 61.0786C41.0204 61.1117 40.756 61.1541 40.5005 61.2018C39.9057 61.3131 39.3585 61.4601 38.8589 61.6456C37.8051 62.0377 36.9662 62.5954 36.3468 63.3174C35.8736 63.8684 35.5282 64.5149 35.3123 65.2567C34.781 67.0822 35.2401 69.2388 36.4279 70.5026C37.1592 71.2802 38.1311 71.6974 39.1065 71.6974C39.1312 71.6974 39.1559 71.6961 39.1805 71.6961L39.0836 68.6466C38.5311 68.6387 37.9751 68.4148 37.5989 68.0148C37.198 67.5882 37.0261 66.9709 37.1698 66.4781C37.3724 65.7826 38.0042 65.1931 38.9602 64.7639C39.407 64.5639 39.9242 64.3996 40.5022 64.2751C40.8062 64.2102 41.1252 64.1559 41.4609 64.1148C41.668 64.0897 41.8689 64.0592 42.0672 64.0274C43.0302 63.8711 43.8911 63.634 44.6559 63.316C45.9345 62.7848 46.946 62.0271 47.7082 61.0269C48.5524 59.9195 49.015 58.408 49.0088 56.7707C49 54.9942 48.4404 53.2615 47.4703 52.0176Z" fill="url(#paint6_linear_91592_177)"/>
<path d="M50.1067 34.9306C49.6476 34.4497 49.0158 34.6206 48.696 35.3108C48.3761 36.001 48.4898 36.9508 48.9489 37.4317C50.5807 39.1392 51.7077 42.0483 50.705 44.3069C50.0186 45.8528 48.384 47.1364 46.2217 47.8279C45.041 48.2055 43.8321 48.4029 42.5571 48.6042C42.5015 48.6135 42.446 48.6214 42.3905 48.6307C41.7702 48.7274 41.134 48.8281 40.4996 48.95C40.2819 48.9924 40.0652 49.0361 39.8484 49.0838C39.6211 49.1341 39.392 49.1818 39.1629 49.2295C38.9312 49.2785 38.6994 49.3275 38.4668 49.3778C37.1327 49.6719 35.8013 50.0442 34.6638 50.8999C34.2585 51.2046 33.8769 51.5702 33.5289 52.0167C32.5596 53.2619 31.9992 54.9933 31.993 56.7697C31.9869 58.407 32.4495 59.9185 33.2936 61.026C34.0558 62.0261 35.0665 62.7839 36.3459 63.3151C36.9653 62.5931 37.8042 62.0354 38.858 61.6433L38.836 60.9425C36.8807 60.5756 35.4674 59.8324 34.6268 58.7303C34.2276 58.2057 34.0179 57.5341 34.0205 56.7856C34.0241 55.8954 34.3245 55.0025 34.8453 54.3336C35.7212 53.2102 37.0746 52.7731 38.5646 52.4353C38.8536 52.3704 39.147 52.3081 39.4431 52.2458C39.6766 52.1968 39.9101 52.1478 40.1427 52.0961C40.2608 52.0696 40.3806 52.0471 40.4996 52.0233C41.1481 51.8921 41.8098 51.7835 42.4584 51.6815C42.5059 51.6736 42.5535 51.6669 42.6002 51.659C43.8285 51.4669 45.0947 51.2656 46.3345 50.8986C46.4367 50.8681 46.5398 50.839 46.642 50.8059C48.562 50.1925 51.1173 48.8586 52.3888 45.9972C53.915 42.5649 52.9554 37.9099 50.1067 34.9306Z" fill="url(#paint7_linear_91592_177)"/>
<path d="M123.289 20.6565L123.457 20.8847V22.2793L123.307 22.479C121.943 22.536 121.096 22.6416 120.768 22.7927C120.44 22.9439 120.207 23.1949 120.071 23.5457C119.935 23.8965 119.856 24.5838 119.838 25.6077C119.819 26.6316 119.785 29.5265 119.735 34.2867V47.4063C119.735 49.303 119.754 51.4478 119.791 53.8378C119.828 56.2279 119.905 57.6197 120.024 58.0076C120.142 58.3955 120.356 58.6807 120.665 58.8604C120.975 59.0401 121.857 59.1598 123.307 59.2169L123.457 59.4165V60.8112L123.289 61.0394C121.268 60.8682 119.506 60.7827 118.005 60.7827C116.987 60.7827 115.257 60.8682 112.814 61.0394L112.646 60.8112V59.445L112.796 59.2169C114.16 59.1598 115.007 59.0572 115.335 58.9031C115.663 58.752 115.896 58.501 116.032 58.1502C116.168 57.7994 116.249 57.1035 116.275 56.0596C116.299 55.0157 116.331 52.1323 116.368 47.4092V26.5204L109.949 47.0669C108.336 52.2093 106.928 57.0464 105.726 61.5813H105C104.305 59.1342 103.734 57.1805 103.289 55.7174L94.3954 27.4588V47.3521C94.3954 49.2117 94.4103 51.3508 94.442 53.7694C94.4737 56.188 94.5501 57.5883 94.675 57.9677C94.7981 58.347 95.0162 58.6322 95.3257 58.8204C95.6352 59.0115 96.5171 59.1228 97.9676 59.1627L98.1168 59.3909V60.757L97.949 61.0137L96.7576 60.9281C95.5289 60.834 94.4755 60.7855 93.5955 60.7855C93.1984 60.7855 91.7161 60.8597 89.1488 61.0137L88.9996 60.7855V59.4194L89.1488 59.1627C90.5136 59.1256 91.3563 59.0315 91.6789 58.8775C92.0014 58.7263 92.2345 58.4696 92.3762 58.1103C92.5179 57.7509 92.5999 57.0778 92.6185 56.091C92.6372 55.1042 92.6651 52.1922 92.7024 47.355V34.3209C92.7024 32.5954 92.6875 30.4934 92.6558 28.0178C92.6241 25.5421 92.5496 24.1104 92.4321 23.7196C92.3146 23.3318 92.1002 23.0408 91.7907 22.8526C91.4812 22.6644 90.5993 22.5503 89.1488 22.5104L88.9996 22.2822V20.9132L89.1674 20.6565C90.0232 20.7506 91.1773 20.7991 92.6279 20.7991C93.9926 20.7991 95.1822 20.7535 96.2001 20.6565C97.2424 24.3386 98.2399 27.667 99.1963 30.6474L106.248 52.7882L112.611 32.4956C114.336 27.0138 115.495 23.0665 116.09 20.6565C117.282 20.7506 118.452 20.7991 119.606 20.7991C120.647 20.7991 121.874 20.7535 123.289 20.6565Z" fill="#333333"/>
<path d="M125.688 20.7726L125.838 20.573C130.092 20.6871 132.814 20.7441 134.006 20.7441C138.074 20.7441 141.695 20.6871 144.87 20.573L144.963 20.7726C144.654 22.5951 144.424 25.4501 144.275 29.3404L144.163 29.5685H143.252L143.084 29.3404C143.097 29.1692 143.102 29.0181 143.102 28.884C143.102 27.2726 143.022 25.7353 142.86 24.2722C142.079 23.7417 140.996 23.3937 139.614 23.234C138.231 23.0743 137.192 22.9916 136.499 22.9916C135.518 22.9916 134.267 23.0971 132.74 23.3053L132.665 27.8573L132.609 33.0652L132.553 38.8435C133.892 38.9576 135.126 39.0147 136.256 39.0147C137.397 39.0147 138.352 38.9576 139.122 38.8435C139.89 38.7295 140.341 38.6125 140.47 38.487C140.6 38.3644 140.699 38.1277 140.768 37.7769C140.835 37.4261 140.895 36.8043 140.945 35.9116L141.02 34.1461L141.169 33.918H142.025L142.174 34.1461C142.15 36.2139 142.118 38.2931 142.081 40.378L142.174 46.7809L142.025 47.0091H141.169L141.02 46.7809L140.889 45.0725C140.777 43.7435 140.697 42.9534 140.647 42.6967C140.597 42.44 140.483 42.2176 140.302 42.0293C140.121 41.8411 139.661 41.6871 138.917 41.573C138.173 41.4589 137.149 41.4019 135.848 41.4019C135.128 41.4019 134.03 41.4504 132.555 41.5445C132.494 43.1388 132.462 45.7941 132.462 49.5132C132.462 53.4976 132.494 56.4296 132.555 58.3063H135.978C138.993 58.3063 140.878 58.2492 141.633 58.1351C142.39 58.0211 143.11 57.7473 143.792 57.3109C143.904 56.8745 144.087 55.8649 144.34 54.2791C144.594 52.6962 144.741 51.7037 144.779 51.3044L144.965 51.1047H145.858L146.007 51.3044C145.895 52.1201 145.787 53.5433 145.681 55.574C145.575 57.6047 145.522 59.3416 145.522 60.7819L145.392 61.0101C143.022 60.896 139.922 60.8389 136.09 60.8389L131.03 60.7819C129.852 60.7819 128.623 60.856 127.346 61.0101L127.197 60.7819V59.8436L127.346 59.5583C128.077 58.9879 128.496 58.6343 128.603 58.4917C128.707 58.3491 128.795 56.6891 128.864 53.5119C128.931 50.3347 128.966 47.9104 128.966 46.2419V35.8004L128.947 29.3404C128.947 27.9371 128.934 26.7934 128.91 25.9121C128.886 25.0308 128.841 24.4005 128.78 24.0183C128.718 23.639 128.645 23.3738 128.565 23.2226C128.485 23.0714 128.355 22.9431 128.174 22.8376C127.993 22.732 127.687 22.6436 127.253 22.5666L125.839 22.3955L125.69 22.1958V20.7726H125.688Z" fill="#333333"/>
<path d="M148.162 20.7708L148.312 20.5712C150.458 20.7224 151.921 20.7994 152.702 20.7994L161.409 20.5142C163.889 20.5142 165.923 20.8707 167.512 21.5808C169.1 22.291 170.51 23.526 171.744 25.28C172.978 27.0341 173.914 29.0762 174.554 31.3978C175.191 33.7222 175.512 36.2036 175.512 38.8389C175.512 41.4001 175.221 43.9327 174.638 46.4369C174.054 48.941 173.226 51.1856 172.154 53.1678C171.082 55.1501 169.859 56.7501 168.489 57.9622C167.118 59.1772 165.744 59.9872 164.368 60.3951C162.992 60.8029 161.585 61.0054 160.145 61.0054C159.178 61.0054 157.354 60.9484 154.675 60.8343C153.795 60.7972 153.211 60.7772 152.926 60.7772C152.07 60.7772 151.034 60.8514 149.82 61.0054L149.671 60.7772V59.8389L149.82 59.5537C150.551 58.9833 150.97 58.6296 151.077 58.487C151.181 58.3444 151.269 56.6845 151.338 53.5072C151.405 50.33 151.44 47.9057 151.44 46.2372V35.7986L151.421 29.3386C151.421 27.9353 151.408 26.7916 151.384 25.9103C151.36 25.029 151.315 24.3987 151.254 24.0165C151.192 23.6372 151.119 23.372 151.039 23.2208C150.959 23.0696 150.829 22.9413 150.648 22.8358C150.469 22.7302 150.161 22.6418 149.727 22.5648L148.313 22.3937L148.164 22.194V20.7708H148.162ZM155.046 57.9109C156.312 58.2902 157.768 58.4813 159.418 58.4813C162.308 58.4813 164.618 57.7426 166.348 56.2624C168.078 54.7821 169.371 52.5917 170.226 49.6883C171.082 46.7848 171.511 43.5135 171.511 39.8714C171.511 34.5009 170.575 30.3368 168.701 27.3763C166.829 24.4158 163.876 22.9356 159.845 22.9356C158.184 22.9356 156.582 23.1267 155.046 23.506C154.947 26.6177 154.897 30.1286 154.897 34.036V42.9716L154.934 51.3396C154.934 52.9682 154.971 55.1615 155.046 57.9109Z" fill="#333333"/>
<path d="M178.189 20.573L180.514 20.6871C182.04 20.7641 183.039 20.8012 183.511 20.8012C183.932 20.8012 185.713 20.727 188.85 20.573L189 20.7726V22.1958L188.85 22.3955C187.995 22.4326 187.335 22.4896 186.869 22.5666C186.402 22.6436 186.065 22.7862 185.854 22.9944C185.644 23.2026 185.504 23.6903 185.435 24.4604C185.366 25.2276 185.332 26.2972 185.332 27.6633L185.295 34.2089V47.3855L185.314 52.9357C185.327 55.0805 185.362 56.4638 185.425 57.0912C185.487 57.7187 185.576 58.1351 185.696 58.3433C185.813 58.5515 186.041 58.7283 186.374 58.8709C186.71 59.0135 187.534 59.1219 188.849 59.1989L188.998 59.3701V60.7932L188.849 61.0214C188.787 61.0214 187.695 60.9644 185.575 60.8503C184.695 60.8132 184.005 60.7932 183.509 60.7932C183.125 60.7932 181.35 60.8674 178.188 61.0214L178.038 60.7932V59.3701L178.188 59.1989C179.342 59.1248 180.11 59.0278 180.494 58.9137C180.878 58.7996 181.135 58.6542 181.266 58.4716C181.396 58.292 181.501 57.9069 181.583 57.3194C181.663 56.7319 181.71 55.4228 181.723 53.3921L181.741 47.3884V34.2117L181.704 28.6615C181.691 26.4997 181.657 25.105 181.601 24.4775C181.546 23.8501 181.458 23.4336 181.34 23.2254C181.223 23.0172 180.995 22.8461 180.662 22.7121C180.326 22.5809 179.502 22.4753 178.188 22.3983L178.038 22.1987V20.7726L178.189 20.573Z" fill="#333333"/>
<defs>
<linearGradient id="paint0_linear_91592_177" x1="40.4998" y1="82.136" x2="40.4998" y2="17.8257" gradientUnits="userSpaceOnUse">
<stop stop-color="#4FBFA5"/>
<stop offset="1" stop-color="#006A65"/>
</linearGradient>
<radialGradient id="paint1_radial_91592_177" cx="0" cy="0" r="1" gradientUnits="userSpaceOnUse" gradientTransform="translate(39.3104 6.2338) scale(4.80728 7.22726)">
<stop stop-color="#4FBFA5"/>
<stop offset="1" stop-color="#00868A"/>
</radialGradient>
<linearGradient id="paint2_linear_91592_177" x1="40.4999" y1="33.9899" x2="81.0002" y2="33.9899" gradientUnits="userSpaceOnUse">
<stop stop-color="#4FBFA5"/>
<stop offset="1" stop-color="#00868A"/>
</linearGradient>
<linearGradient id="paint3_linear_91592_177" x1="-0.00033037" y1="33.9899" x2="40.4999" y2="33.9899" gradientUnits="userSpaceOnUse">
<stop stop-color="#4FBFA5"/>
<stop offset="1" stop-color="#00868A"/>
</linearGradient>
<linearGradient id="paint4_linear_91592_177" x1="27.8894" y1="42.7789" x2="38.4671" y2="42.7789" gradientUnits="userSpaceOnUse">
<stop stop-color="#4FBFA5"/>
<stop offset="1" stop-color="#00868A"/>
</linearGradient>
<linearGradient id="paint5_linear_91592_177" x1="41.8202" y1="67.5072" x2="45.9074" y2="67.5072" gradientUnits="userSpaceOnUse">
<stop stop-color="#00868A"/>
<stop offset="1" stop-color="#4FBFA5"/>
</linearGradient>
<linearGradient id="paint6_linear_91592_177" x1="35.0923" y1="61.2988" x2="49.0061" y2="61.2988" gradientUnits="userSpaceOnUse">
<stop stop-color="#00868A"/>
<stop offset="1" stop-color="#4FBFA5"/>
</linearGradient>
<linearGradient id="paint7_linear_91592_177" x1="31.9936" y1="48.9872" x2="53.1103" y2="48.9872" gradientUnits="userSpaceOnUse">
<stop stop-color="#4FBFA5"/>
<stop offset="1" stop-color="#00868A"/>
</linearGradient>
</defs>
</svg>
